<svg width="223" height="50" viewBox="0 0 223 50" fill="none" xmlns="http://www.w3.org/2000/svg">
<g clip-path="url(#clip0_486_337)">
<g clip-path="url(#clip1_486_337)">
<g clip-path="url(#clip2_486_337)">
<path d="M74.1553 6.07163C74.1553 4.84444 73.3055 3.84961 72.2573 3.84961C71.2091 3.84961 70.3594 4.84444 70.3594 6.07163V43.9299C70.3594 45.157 71.2091 46.1519 72.2573 46.1519C73.3055 46.1519 74.1553 45.157 74.1553 43.9299V6.07163Z" fill="white"/>
<g clip-path="url(#clip3_486_337)">
<g clip-path="url(#clip4_486_337)">
<g clip-path="url(#clip5_486_337)">
<g clip-path="url(#clip6_486_337)">
<path d="M95.4895 36.1454H89.1742C87.7576 36.1454 86.684 35.9683 85.9533 35.6142C85.2169 35.2545 84.7222 34.6699 84.4693 33.8604C84.2163 33.051 84.0898 31.9745 84.0898 30.6311V12.1403C84.0898 10.7688 84.2163 9.68107 84.4693 8.87725C84.7222 8.07904 85.2169 7.50288 85.9533 7.14875C86.684 6.80023 87.7576 6.62598 89.1742 6.62598H95.4895C98.4406 6.62598 101.024 7.06443 103.238 7.94132C105.459 8.82384 107.184 10.3106 108.415 12.4017C109.652 14.4928 110.27 17.3652 110.27 21.0189C110.27 24.667 109.652 27.5985 108.415 29.8132C107.184 32.0335 105.459 33.644 103.238 34.6446C101.024 35.6451 98.4406 36.1454 95.4895 36.1454ZM93.9887 12.0391H93.0865C92.1759 12.0391 91.5575 12.2303 91.2315 12.6125C90.8999 13.0004 90.734 13.6608 90.734 14.5939V28.1774C90.734 29.0993 90.8999 29.7598 91.2315 30.1589C91.5575 30.5524 92.1759 30.7491 93.0865 30.7491H94.0308C96.9651 30.7491 99.2388 30.0296 100.852 28.5906C102.465 27.1516 103.272 24.653 103.272 21.0948C103.272 18.7227 102.904 16.8818 102.167 15.572C101.437 14.2623 100.377 13.3461 98.9887 12.8233C97.6059 12.3005 95.9392 12.0391 93.9887 12.0391ZM125.009 36.6597C121.552 36.6597 118.814 35.7407 116.796 33.9026C114.778 32.0645 113.769 29.327 113.769 25.6901C113.769 21.9576 114.815 19.1667 116.906 17.3174C119.003 15.4737 121.799 14.5518 125.296 14.5518C128.674 14.5518 131.378 15.4596 133.407 17.2752C135.436 19.0965 136.451 21.7778 136.451 25.3191C136.451 29.0122 135.436 31.8256 133.407 33.7592C131.378 35.6929 128.578 36.6597 125.009 36.6597ZM125.211 31.6766C126.723 31.6766 127.864 31.2072 128.635 30.2685C129.399 29.3298 129.781 27.7193 129.781 25.4371C129.781 23.273 129.393 21.7469 128.618 20.8587C127.842 19.9762 126.692 19.5349 125.169 19.5349C123.702 19.5349 122.547 20.0099 121.704 20.9599C120.861 21.9155 120.439 23.4641 120.439 25.6058C120.439 27.843 120.841 29.4141 121.645 30.3191C122.449 31.2241 123.637 31.6766 125.211 31.6766ZM161.257 17.0391V33.7339C161.257 37.7418 160.113 40.7969 157.825 42.8992C155.543 44.9959 152.412 46.0442 148.432 46.0442C146.785 46.0442 145.481 45.9262 144.52 45.6901C143.559 45.4484 142.831 45.2179 142.336 44.9987C142.021 44.8469 141.816 44.6895 141.721 44.5265C141.586 44.3073 141.431 43.9841 141.257 43.5569C141.088 43.1297 140.928 42.6631 140.776 42.1572C140.731 41.9661 140.723 41.8228 140.751 41.7272C140.807 41.5867 140.911 41.4405 141.063 41.2887C141.31 41.0414 141.664 40.7547 142.125 40.4287C142.581 40.0971 142.932 39.8835 143.179 39.7879C143.443 39.6923 143.685 39.7064 143.904 39.8301C144.259 40.0212 144.77 40.2376 145.439 40.4793C146.102 40.721 147.038 40.8419 148.247 40.8419C150.169 40.8419 151.735 40.3472 152.943 39.3579C154.146 38.3686 154.748 36.8452 154.748 34.7879V34.0459H154.672C154.368 34.4281 153.978 34.8188 153.5 35.2179C153.016 35.617 152.395 35.9543 151.636 36.2297C150.872 36.5052 149.894 36.6429 148.702 36.6429C146.628 36.6429 144.927 36.1932 143.601 35.2938C142.28 34.3944 141.307 33.155 140.684 31.5754C140.06 29.9959 139.748 28.1971 139.748 26.1791C139.748 23.97 140.11 21.9886 140.835 20.2348C141.56 18.4753 142.783 17.0841 144.503 16.0611C146.218 15.0436 148.564 14.5349 151.544 14.5349C153.325 14.5349 154.823 14.6642 156.038 14.9228C157.252 15.1814 158.272 15.5046 159.098 15.8924C159.919 16.2747 160.639 16.6569 161.257 17.0391ZM151.316 19.5096C149.725 19.5096 148.511 20.0465 147.673 21.1201C146.836 22.1881 146.417 23.8492 146.417 26.1032C146.417 29.6277 147.87 31.3899 150.776 31.3899C151.917 31.3899 152.789 31.1566 153.39 30.6901C153.997 30.2235 154.45 29.6333 154.748 28.9194V20.4203C154.45 20.201 154.025 19.9959 153.474 19.8047C152.924 19.608 152.204 19.5096 151.316 19.5096ZM178.508 26.2887C178.148 26.2887 177.845 26.1988 177.598 26.0189C177.339 25.839 177.03 25.5833 176.67 25.2516C176.316 24.9256 175.92 24.5209 175.481 24.0375C175.313 23.8463 175.228 23.6749 175.228 23.5231C175.228 23.377 175.313 23.2055 175.481 23.0088C176.33 22.0476 177.106 21.3421 177.808 20.8924C177.971 20.78 178.205 20.7238 178.508 20.7238C179.441 20.7238 180.245 20.3753 180.92 19.6783C181.6 18.9756 181.926 17.843 181.898 16.2803C181.886 14.5939 181.473 13.4135 180.658 12.739C179.838 12.0644 178.722 11.7272 177.311 11.7272H176.324C175.419 11.7272 174.801 11.9211 174.469 12.309C174.138 12.6912 173.972 13.3489 173.972 14.282V35.0577C173.972 35.4681 173.888 35.7519 173.719 35.9093C173.545 36.0667 173.252 36.1454 172.842 36.1454H168.458C168.047 36.1454 167.755 36.0667 167.581 35.9093C167.412 35.7519 167.328 35.4681 167.328 35.0577V12.1403C167.328 10.7688 167.454 9.68107 167.707 8.87725C167.96 8.07904 168.455 7.50288 169.191 7.14875C169.922 6.80023 170.996 6.62598 172.412 6.62598H177.311C181.251 6.62598 184.169 7.39889 186.063 8.9447C187.957 10.4849 188.904 12.8486 188.904 16.0358C188.904 18.4248 188.407 20.3725 187.412 21.8789C186.417 23.391 185.127 24.504 183.542 25.2179C181.957 25.9318 180.279 26.2887 178.508 26.2887ZM191.965 8.15212C191.965 7.97224 192.021 7.81485 192.134 7.67994C192.241 7.53942 192.384 7.35954 192.564 7.14031C192.946 6.70186 193.393 6.23812 193.904 5.74908C194.41 5.26566 194.925 4.7963 195.447 4.34098C195.774 4.08241 196.021 3.95312 196.189 3.95312C196.352 3.95312 196.605 4.08241 196.948 4.34098C198.061 5.3022 199.008 6.23531 199.79 7.14031C199.97 7.34829 200.116 7.52255 200.228 7.66308C200.346 7.80923 200.405 7.97224 200.405 8.15212C200.405 8.32637 200.346 8.48377 200.228 8.62429C200.116 8.7592 199.961 8.9447 199.765 9.18079C199.394 9.60237 198.964 10.0577 198.474 10.5467C197.98 11.0358 197.471 11.4995 196.948 11.938C196.757 12.101 196.605 12.2078 196.493 12.2584C196.386 12.3033 196.285 12.3258 196.189 12.3258C196.088 12.3258 195.987 12.3033 195.886 12.2584C195.785 12.2078 195.625 12.101 195.405 11.938C194.854 11.4995 194.34 11.0358 193.862 10.5467C193.379 10.0577 192.946 9.58832 192.564 9.13863C192.384 8.91941 192.241 8.74515 192.134 8.61586C192.021 8.48095 191.965 8.32637 191.965 8.15212ZM199.419 16.1538V35.0577C199.419 35.4681 199.332 35.7519 199.157 35.9093C198.989 36.0667 198.699 36.1454 198.289 36.1454H194.048C193.632 36.1454 193.34 36.0667 193.171 35.9093C192.997 35.7519 192.91 35.4681 192.91 35.0577V16.1538C192.91 15.7435 192.997 15.4596 193.171 15.3022C193.34 15.1448 193.632 15.0661 194.048 15.0661H198.289C198.699 15.0661 198.989 15.1448 199.157 15.3022C199.332 15.4596 199.419 15.7435 199.419 16.1538ZM215.515 14.5518C217.145 14.5518 218.331 14.6867 219.073 14.9565C219.815 15.2207 220.282 15.4287 220.473 15.5805C220.776 15.7716 221.01 16.0189 221.173 16.3224C221.268 16.4742 221.378 16.7356 221.501 17.1066C221.625 17.4776 221.715 17.8823 221.771 18.3208C221.839 18.6637 221.844 18.9054 221.788 19.0459C221.738 19.192 221.566 19.3691 221.274 19.5771C220.948 19.7963 220.588 19.9902 220.195 20.1589C219.807 20.3331 219.489 20.454 219.242 20.5214C219.034 20.5777 218.874 20.5917 218.761 20.5636C218.654 20.5355 218.505 20.454 218.314 20.3191C218.095 20.1673 217.786 19.9987 217.387 19.8132C216.988 19.6277 216.44 19.5349 215.743 19.5349C214.849 19.5349 214 19.7542 213.196 20.1926C212.392 20.6311 211.74 21.2887 211.24 22.1656C210.74 23.0481 210.49 24.1471 210.49 25.4624C210.49 27.4354 211.007 28.9644 212.041 30.0493C213.081 31.1342 214.472 31.6766 216.215 31.6766C217.103 31.6766 217.842 31.5838 218.432 31.3983C219.023 31.2129 219.489 31.0245 219.832 30.8334C220.107 30.6817 220.318 30.6451 220.464 30.7238C220.611 30.7969 220.723 30.929 220.802 31.1201L222.303 34.5181C222.454 34.8778 222.373 35.1308 222.058 35.2769C221.552 35.5411 220.715 35.8362 219.545 36.1623C218.382 36.4939 216.943 36.6597 215.228 36.6597C211.783 36.6597 209.031 35.7435 206.974 33.911C204.911 32.0785 203.879 29.3382 203.879 25.6901C203.879 23.3573 204.354 21.359 205.304 19.6951C206.249 18.0369 207.592 16.7637 209.335 15.8756C211.077 14.993 213.137 14.5518 215.515 14.5518Z" fill="white"/>
</g>
</g>
</g>
</g>
<g clip-path="url(#clip7_486_337)">
<g clip-path="url(#clip8_486_337)">
<path d="M19.7947 49.2925C15.7887 49.2925 11.942 47.4764 9.98979 44.6675C5.70221 38.4923 5.59999 38.2603 2.98492 32.3165C2.38728 30.9588 1.65858 29.3001 0.717277 27.2011L0.644531 27.0412L0.704734 26.8763C0.783751 26.6562 8.83715 4.94045 29.1764 1.39098C29.2234 1.37467 31.5638 0.683594 34.794 0.683594C38.8853 0.683594 44.5933 1.81679 48.5642 7.2037C49.0621 7.66839 53.7793 12.3404 51.6803 20.8278L51.6114 21.1043L51.3298 21.1514C50.936 21.2159 50.5465 21.2492 50.1715 21.2498C45.1314 21.2498 43.5743 15.3838 43.5592 15.3236C41.5719 6.86004 37.4242 4.57547 34.9044 3.99037C37.8613 5.93881 40.1709 9.93228 40.9065 13.4178C41.5731 16.574 40.9812 19.1647 39.2829 20.5236C35.2437 23.7608 33.3837 32.4921 33.1842 33.4767L33.1422 33.6911L32.9434 33.7833C31.2515 34.576 29.4184 36.1839 27.4951 38.5632L27.2229 38.8993L26.565 38.3362L26.3136 37.9078C26.4961 38.3111 26.6579 38.7037 26.7983 39.0887C27.6775 41.4692 27.786 43.5387 27.1194 45.2376C26.1236 47.7767 23.3862 49.2925 19.7947 49.2925ZM1.58207 27.0092C2.32103 28.6589 3.05372 30.3113 3.7801 31.9666C6.36193 37.8376 6.46353 38.0671 10.7028 44.1721C12.4688 46.7157 16.1236 48.4246 19.7947 48.4246C23.015 48.4246 25.4507 47.1145 26.3117 44.9215C26.8974 43.4277 26.7877 41.5652 25.9837 39.3891C25.5265 38.1374 24.8286 36.7728 23.9111 35.3335C14.0372 19.8557 17.6995 12.5687 17.8607 12.2664L19.2548 9.64067L18.6697 12.5555C18.6534 12.6364 17.1859 20.7218 27.1495 37.6169C28.9663 35.4402 30.7222 33.92 32.3778 33.0929C32.8117 31.029 34.7062 23.0797 38.7405 19.847C40.1741 18.6968 40.6551 16.4204 40.0587 13.5978C39.2045 9.5535 36.148 4.79433 32.5107 3.83108L30.588 3.32124L32.5477 2.98322C32.5784 2.9782 32.8563 2.93243 33.3222 2.93243C35.2506 2.93243 41.7494 3.81227 44.4033 15.1185C44.4566 15.3242 45.8087 20.3819 50.1715 20.3819C50.4111 20.3813 50.6563 20.3668 50.9065 20.3367C52.7703 12.2545 47.9992 7.8628 47.9503 7.81953L47.8894 7.75305C44.133 2.6289 38.6947 1.55277 34.7947 1.55277C31.6986 1.55277 29.3983 2.22943 29.3745 2.23696C10.4093 5.54687 2.35467 25.0288 1.58207 27.0092ZM17.9824 17.3084C18.1197 20.8641 19.4103 26.5 24.3043 34.3302C20.1321 26.5289 18.543 20.9087 17.9824 17.3084ZM33.494 19.4406C32.2511 19.4406 31.7425 18.8649 31.6892 18.8003L31.6328 18.7113C30.9153 17.2124 31.1166 15.5418 31.1254 15.471L31.1417 15.3424L31.2264 15.2433C31.9984 14.344 33.1265 13.8687 34.4849 13.8687C35.4462 13.8687 36.1856 14.1082 36.2157 14.1183L36.3806 14.1709L36.4615 14.3215C37.3527 15.9488 36.2615 18.5181 36.2138 18.6266L36.1448 18.7878L35.9831 18.8555C35.0568 19.2437 34.219 19.4406 33.494 19.4406ZM32.3859 18.2716C32.475 18.345 32.8011 18.572 33.4934 18.572C34.0603 18.572 34.7301 18.4209 35.482 18.1224C35.7548 17.4163 36.1806 15.8748 35.7774 14.8959C35.3546 14.7914 34.9209 14.738 34.4855 14.7366C33.4257 14.7366 32.5816 15.0633 31.9758 15.7086C31.9495 16.088 31.9162 17.2419 32.3859 18.2716ZM48.6871 18.424C48.2507 18.424 47.7809 18.345 47.2918 18.1876L47.1068 18.128L47.0278 17.9506C47.0027 17.8954 46.4113 16.5496 46.4903 15.0364L46.4972 14.9222L46.5581 14.8269C46.602 14.7554 47.6768 13.0892 49.4522 13.0892C49.804 13.0892 50.1608 13.1563 50.5114 13.2892L50.6795 13.3526L50.7535 13.5144C50.8093 13.6348 52.088 16.4768 50.5628 17.7518C50.5509 17.7731 49.9577 18.424 48.6871 18.424ZM47.7496 17.4181C48.0813 17.5097 48.3961 17.5561 48.6865 17.5561C49.5582 17.5561 49.9426 17.1466 49.9583 17.1297C50.8463 16.3821 50.2486 14.598 50.0317 14.043C49.8432 13.9867 49.6477 13.9576 49.451 13.9565C48.3573 13.9565 47.5727 14.9034 47.352 15.2013C47.3288 16.1614 47.6141 17.05 47.7496 17.4181Z" fill="white"/>
<path d="M19.849 49.7226C16.2399 49.7226 11.9034 48.1862 9.63141 44.9145C5.32 38.7067 5.21778 38.4722 2.58641 32.4907C1.83793 30.7837 1.08225 29.0798 0.31939 27.3791L0.175781 27.0581L0.294933 26.7282C0.374577 26.5075 8.50637 4.58792 29.0556 0.971981C29.9863 0.714864 42.0106 -2.36928 48.8881 6.9164C49.5447 7.54226 54.028 12.181 52.2206 20.4132L57.4062 24.9472C57.8922 25.1711 59.2456 25.9293 59.9617 27.7121C60.8804 29.9942 60.4214 32.9968 58.5984 36.6391C58.1362 37.5014 56.7503 38.8936 54.7441 38.1592C53.9289 37.8689 53.0848 37.228 52.2325 36.2528C50.8015 37.1257 47.3404 38.9475 43.6837 38.671C40.6341 38.4333 38.1883 36.8392 36.4092 33.9325C36.1 33.7594 35.0051 33.3016 33.125 34.1783C31.4932 34.9421 29.7129 36.5087 27.8309 38.8371L27.7174 38.9808L27.3731 39.4204C28.1307 41.7049 28.1815 43.7142 27.5217 45.3968C26.6043 47.7353 24.3027 49.283 21.2092 49.6448C20.774 49.6969 20.3168 49.7226 19.849 49.7226ZM2.05273 26.9985C2.9238 28.9457 3.60923 30.504 4.17614 31.7915C6.79184 37.7397 6.84263 37.8545 11.0587 43.9249C13.2342 47.058 17.7162 48.3097 21.0085 47.9215C22.4402 47.7535 24.9807 47.1201 25.9063 44.7634C26.4525 43.3706 26.3409 41.6134 25.5752 39.5389C25.1274 38.3166 24.4439 36.9809 23.5433 35.5686C13.5352 19.8789 17.3111 12.3754 17.476 12.0631L20.3231 6.70318L19.0933 12.6476C19.0783 12.7197 17.7049 20.5354 27.2144 36.8718C29.0074 34.8073 30.7432 33.3769 32.3894 32.6068C35.6585 31.0804 37.533 32.5911 37.6114 32.6557L37.7268 32.7516L37.8026 32.8802C39.2845 35.3792 41.3076 36.7451 43.8167 36.9414C47.8609 37.2386 51.8688 34.4229 51.9083 34.3953L52.59 33.9105L53.1005 34.5728C54.117 35.8922 54.8758 36.3626 55.3342 36.5256C56.3928 36.9125 56.9591 36.0164 57.0626 35.8333C58.6021 32.756 59.0593 30.1742 58.3689 28.4013C57.8095 26.9678 56.6869 26.525 56.6399 26.5075L56.4944 26.4516L56.3684 26.3463L50.2872 21.0284L50.4145 20.5147C52.3856 12.5523 47.8503 8.31863 47.6577 8.14178L47.5392 8.01071C41.1596 -0.691753 29.9725 2.51217 29.4984 2.65265L29.3999 2.67585C11.1497 5.85908 3.12071 24.332 2.05273 26.9985Z" fill="white"/>
<path d="M49.7034 40.1043C48.2648 40.1043 46.7421 39.6697 45.3506 38.4061C45.1805 38.2509 45.0787 38.0348 45.0675 37.8049C45.0562 37.5749 45.1363 37.3499 45.2904 37.1788C45.4454 37.0084 45.6618 36.9066 45.8919 36.8957C46.122 36.8847 46.3471 36.9656 46.5176 37.1205C49.6544 39.9701 53.9251 37.0791 54.5108 36.6571C54.6811 36.5107 54.9014 36.436 55.1256 36.4486C55.3498 36.4613 55.5603 36.5604 55.713 36.725C55.8657 36.8896 55.9486 37.107 55.9444 37.3315C55.9402 37.5559 55.8492 37.7701 55.6904 37.9288C55.652 37.9656 55.612 38.0008 55.5706 38.0342C55.158 38.3346 52.605 40.1043 49.7034 40.1043Z" fill="white"/>
<path d="M54.4644 32.9296C54.2635 32.9282 54.0637 32.8984 53.8711 32.8411C53.7048 32.8979 53.5301 32.9263 53.3544 32.9252C53.0358 32.9252 52.5467 32.833 52.0249 32.3852C51.4486 31.8929 51.547 31.1247 51.6198 30.566C51.6273 30.5196 51.633 30.4638 51.6392 30.4079C51.5715 30.4299 51.4919 30.4581 51.399 30.4945C49.936 31.0658 48.7965 30.3829 48.7194 29.0929C48.631 27.633 49.8426 25.84 51.596 25.63C52.4137 25.5321 53.2879 25.4355 54.201 25.4355C58.0546 25.4355 58.9144 27.3006 58.9577 28.864C58.9915 30.0317 58.8391 30.7021 58.4484 31.104C58.3417 31.216 58.2133 31.3052 58.0712 31.3663C57.929 31.4274 57.776 31.4592 57.6213 31.4596C56.8781 31.4596 56.3131 30.7597 55.9983 30.169C55.9387 30.2574 55.898 30.3615 55.9212 30.4637C55.9864 30.7522 56.1551 31.7293 55.6227 32.394C55.3461 32.7395 54.9341 32.9296 54.4644 32.9296ZM53.3437 29.6084L54.3057 29.6836C54.3914 29.4595 54.5114 29.2501 54.6613 29.0628C55.0796 28.5354 55.6854 28.208 56.2397 28.208C56.6398 28.208 56.9854 28.378 57.2061 28.6639C57.1415 28.0795 56.7659 27.1714 54.2004 27.1714C53.3832 27.1714 52.5674 27.2611 51.8029 27.352C51.3852 27.4028 50.9732 27.7113 50.6979 28.1779C50.5067 28.5059 50.4471 28.805 50.449 28.9662C50.5217 28.9562 50.6233 28.9323 50.765 28.8772C52.055 28.3704 52.7605 28.7078 53.0502 29.0389C53.2039 29.2127 53.2948 29.4071 53.3437 29.6084Z" fill="white"/>
<path d="M32.751 34.3028C32.637 34.3029 32.524 34.2805 32.4186 34.2369C32.3132 34.1934 32.2174 34.1295 32.1367 34.0489C32.056 33.9683 31.9919 33.8726 31.9482 33.7672C31.9045 33.6619 31.882 33.549 31.8819 33.4349C31.8819 33.381 31.8925 33.2831 31.9026 33.2298C32.245 31.536 34.1589 22.9596 38.4653 19.5092C39.7666 18.4663 40.1911 16.3448 39.6299 13.6877C38.8027 9.77262 35.8703 5.17148 32.3961 4.2515L28.5469 3.23307L32.4707 2.55704C32.5604 2.54073 41.5664 1.15606 44.8205 15.0191C44.8763 15.2323 46.3412 20.6568 51.1136 19.8666C51.2262 19.8481 51.3413 19.8519 51.4524 19.8778C51.5635 19.9037 51.6684 19.9513 51.7612 20.0177C51.8539 20.0842 51.9327 20.1683 51.9929 20.2652C52.0531 20.3621 52.0937 20.4699 52.1123 20.5825C52.1308 20.6951 52.1271 20.8102 52.1011 20.9213C52.0752 21.0324 52.0276 21.1374 51.9612 21.2301C51.8947 21.3228 51.8106 21.4016 51.7137 21.4618C51.6168 21.522 51.509 21.5626 51.3964 21.5812C46.3162 22.4177 43.7707 17.9257 43.1342 15.4329C41.7796 9.6635 39.4311 6.8465 37.3121 5.48378C39.3226 7.67116 40.7656 10.665 41.3281 13.3302C42.0292 16.6508 41.3808 19.3976 39.5496 20.8644C35.6728 23.9711 33.8416 32.4071 33.6127 33.5302C33.5898 33.7427 33.4891 33.9391 33.33 34.0817C33.1709 34.2244 32.9647 34.3031 32.751 34.3028Z" fill="white"/>
<path d="M42.6018 45.9484H26.7126C26.4814 45.9488 26.2595 45.8576 26.0952 45.6949C25.931 45.5322 25.8378 45.3111 25.8359 45.0799C25.8359 44.6001 26.2172 44.2113 26.697 44.2113H41.3319C40.6478 42.0127 40.5004 38.8119 43.3055 37.2065C43.5053 37.0922 43.7424 37.0618 43.9646 37.1222C44.1869 37.1825 44.3761 37.3285 44.4907 37.5282C44.6047 37.7282 44.6348 37.9654 44.5742 38.1876C44.5137 38.4097 44.3675 38.5989 44.1677 38.7134C41.3206 40.3439 43.2979 44.5243 43.3832 44.7011L43.9853 45.9472L42.6018 45.9484Z" fill="white"/>
<path d="M33.4908 19.876C32.0786 19.876 31.4602 19.21 31.3505 19.0758L31.2376 18.9002C30.4669 17.2885 30.6807 15.4944 30.6914 15.4179L30.7246 15.1595L30.8946 14.9619C31.7512 13.9629 32.9929 13.4355 34.4823 13.4355C35.4938 13.4355 36.2639 13.6789 36.3498 13.7065L36.6759 13.8137L36.8415 14.1153C37.8154 15.8945 36.7368 18.5095 36.6113 18.8018L36.4715 19.1235L36.1479 19.2577C35.1671 19.6678 34.2735 19.876 33.4908 19.876ZM32.7339 17.9934C32.8254 18.0386 33.0612 18.1383 33.4902 18.1383C33.9593 18.1383 34.5124 18.0204 35.1382 17.7883C35.359 17.155 35.6399 16.0381 35.4405 15.2667C35.1249 15.2041 34.804 15.172 34.4823 15.1708C33.6093 15.1708 32.9101 15.4166 32.3965 15.8989C32.3808 16.3234 32.3996 17.1932 32.7339 17.9934Z" fill="white"/>
<path d="M48.6854 18.8565C48.2025 18.8565 47.6883 18.7699 47.1565 18.5993L46.7878 18.4808L46.6297 18.1265C46.6021 18.0669 45.97 16.6289 46.0547 15.0129L46.0672 14.7859L46.1889 14.5927C46.2384 14.5149 47.4387 12.6543 49.4499 12.6543C49.8537 12.6543 50.262 12.7308 50.6627 12.8813L50.9963 13.0074L51.1456 13.3322C51.2973 13.6621 52.5673 16.5794 50.8778 18.05C50.6627 18.2645 49.9559 18.8565 48.6854 18.8565ZM48.0809 17.0522C48.2947 17.098 48.4967 17.1206 48.6854 17.1206C49.3439 17.1206 49.6324 16.8403 49.6437 16.8277L49.7264 16.7481C50.1968 16.3555 49.9867 15.1891 49.712 14.4115C48.8027 14.2597 48.0665 14.9991 47.7849 15.3496C47.7893 16.0332 47.9561 16.671 48.0809 17.0522Z" fill="white"/>
<path d="M34.9345 17.9069C34.9345 17.9069 34.5614 17.7627 34.4466 17.1882C34.3306 16.6132 34.2867 16.5975 34.2459 16.1823C34.2039 15.7665 34.214 15.0203 34.7194 14.8685C35.2236 14.7161 36.1649 15.7553 36.1649 16.5837C36.1649 16.8872 36.0834 17.1656 35.9316 17.3876C35.821 17.5496 35.6721 17.6817 35.4982 17.7723C35.3242 17.8628 35.1306 17.9091 34.9345 17.9069Z" fill="white"/>
<path d="M49.53 16.8236C49.53 16.8236 49.2139 16.7019 49.1173 16.2159C49.0195 15.7299 48.9819 15.7167 48.9468 15.3649C48.911 15.0144 48.9198 14.3841 49.3469 14.2549C49.7727 14.1257 50.5685 15.005 50.5685 15.7061C50.5685 15.9613 50.5008 16.1952 50.3716 16.384C50.2785 16.521 50.1529 16.6329 50.0061 16.7096C49.8592 16.7863 49.6956 16.8255 49.53 16.8236Z" fill="white"/>
</g>
</g>
</g>
</g>
</g>
<defs>
<clipPath id="clip0_486_337">
<rect width="222.552" height="50" fill="white"/>
</clipPath>
<clipPath id="clip1_486_337">
<rect width="222.202" height="49.4453" fill="white" transform="translate(0.175781 0.277344)"/>
</clipPath>
<clipPath id="clip2_486_337">
<rect width="222.202" height="49.4453" fill="white" transform="translate(0.175781 0.277344)"/>
</clipPath>
<clipPath id="clip3_486_337">
<rect width="138.287" height="42.0918" fill="white" transform="translate(84.0898 3.95312)"/>
</clipPath>
<clipPath id="clip4_486_337">
<rect width="138.287" height="42.0918" fill="white" transform="translate(84.0898 3.95312)"/>
</clipPath>
<clipPath id="clip5_486_337">
<rect width="138.287" height="42.0918" fill="white" transform="translate(84.0898 3.95312)"/>
</clipPath>
<clipPath id="clip6_486_337">
<rect width="138.287" height="42.0918" fill="white" transform="translate(84.0898 3.95312)"/>
</clipPath>
<clipPath id="clip7_486_337">
<rect width="60.2459" height="49.4453" fill="white" transform="translate(0.175781 0.277344)"/>
</clipPath>
<clipPath id="clip8_486_337">
<rect width="60.2459" height="49.4453" fill="white" transform="translate(0.175781 0.277344)"/>
</clipPath>
</defs>
</svg>
