<svg width="25" height="20" viewBox="0 0 25 20" fill="none" xmlns="http://www.w3.org/2000/svg">
<g clip-path="url(#clip0_487_380)">
<g clip-path="url(#clip1_487_380)">
<path d="M7.93352 19.8258C6.31314 19.8258 4.75719 19.0912 3.96754 17.955C2.23327 15.4572 2.19192 15.3634 1.13416 12.9592C0.892421 12.41 0.597668 11.7391 0.216925 10.8901L0.1875 10.8254L0.211851 10.7587C0.243813 10.6696 3.50132 1.88591 11.7283 0.450191C11.7473 0.443596 12.694 0.164062 14.0006 0.164062C15.6554 0.164062 17.9642 0.622426 19.5704 2.80137C19.7718 2.98933 21.6799 4.8791 20.8309 8.31213L20.803 8.424L20.6891 8.44302C20.5298 8.46915 20.3722 8.48259 20.2206 8.48285C18.1819 8.48285 17.5521 6.11011 17.546 6.08576C16.7421 2.66236 15.0644 1.73828 14.0452 1.50161C15.2412 2.28973 16.1754 3.90504 16.473 5.31488C16.7426 6.59156 16.5032 7.63943 15.8163 8.18911C14.1824 9.4985 13.4301 13.0302 13.3494 13.4285L13.3324 13.5152L13.252 13.5525C12.5676 13.8731 11.8262 14.5235 11.0482 15.4859L10.9381 15.6219L10.672 15.3941L10.5703 15.2208C10.6441 15.3839 10.7096 15.5427 10.7664 15.6985C11.122 16.6614 11.1659 17.4984 10.8963 18.1856C10.4935 19.2127 9.38623 19.8258 7.93352 19.8258ZM0.566722 10.8125C0.865624 11.4797 1.16199 12.1481 1.4558 12.8176C2.50012 15.1924 2.54121 15.2852 4.25595 17.7546C4.97026 18.7835 6.44859 19.4747 7.93352 19.4747C9.23606 19.4747 10.2213 18.9448 10.5696 18.0578C10.8065 17.4535 10.7621 16.7002 10.4369 15.82C10.252 15.3137 9.96965 14.7617 9.59854 14.1795C5.60466 7.91896 7.08604 4.97143 7.15123 4.84916L7.71512 3.78709L7.47845 4.9661C7.47186 4.99882 6.87829 8.26926 10.9084 15.1031C11.6433 14.2227 12.3535 13.6078 13.0232 13.2732C13.1987 12.4384 13.965 9.22303 15.5968 7.91541C16.1767 7.4502 16.3713 6.52941 16.13 5.38768C15.7845 3.75183 14.5482 1.8268 13.077 1.43718L12.2993 1.23096L13.0919 1.09423C13.1044 1.0922 13.2167 1.07369 13.4052 1.07369C14.1852 1.07369 16.8139 1.42957 17.8874 6.00281C17.909 6.08601 18.4558 8.13178 20.2206 8.13178C20.3175 8.13153 20.4166 8.12569 20.5178 8.11352C21.2717 4.84435 19.3419 3.06796 19.3221 3.05046L19.2975 3.02357C17.7781 0.950916 15.5783 0.515636 14.0008 0.515636C12.7485 0.515636 11.8181 0.789335 11.8084 0.792379C4.13724 2.1312 0.879231 10.0114 0.566722 10.8125ZM7.20044 6.88859C7.25599 8.32684 7.77802 10.6065 9.75759 13.7737C8.06999 10.6182 7.42721 8.34485 7.20044 6.88859ZM13.4747 7.75104C12.972 7.75104 12.7662 7.51818 12.7447 7.49205L12.7219 7.45603C12.4317 6.84978 12.5131 6.17403 12.5166 6.14537L12.5232 6.09337L12.5575 6.05329C12.8697 5.68954 13.3261 5.49727 13.8755 5.49727C14.2644 5.49727 14.5634 5.59416 14.5756 5.59822L14.6423 5.61953L14.675 5.68041C15.0355 6.33866 14.5941 7.3779 14.5748 7.42178L14.5469 7.48698L14.4815 7.51437C14.1068 7.67139 13.768 7.75104 13.4747 7.75104ZM13.0265 7.27821C13.0625 7.30789 13.1944 7.39972 13.4745 7.39972C13.7038 7.39972 13.9747 7.33858 14.2788 7.21784C14.3892 6.93222 14.5614 6.30872 14.3983 5.91276C14.2273 5.87051 14.0519 5.84888 13.8758 5.84833C13.4471 5.84833 13.1056 5.98049 12.8606 6.2415C12.85 6.39497 12.8365 6.8617 13.0265 7.27821ZM19.6201 7.33985C19.4436 7.33985 19.2536 7.30789 19.0557 7.24422L18.9809 7.22013L18.949 7.14834C18.9388 7.12602 18.6996 6.58166 18.7316 5.96958L18.7344 5.92342L18.759 5.88486C18.7767 5.85594 19.2115 5.18197 19.9296 5.18197C20.0719 5.18197 20.2162 5.20911 20.358 5.26288L20.426 5.2885L20.456 5.35395C20.4785 5.40265 20.9957 6.55224 20.3788 7.06793C20.374 7.07655 20.1341 7.33985 19.6201 7.33985ZM19.2409 6.93298C19.3751 6.97002 19.5024 6.98879 19.6199 6.98879C19.9725 6.98879 20.128 6.82315 20.1343 6.8163C20.4935 6.51394 20.2518 5.79227 20.164 5.56778C20.0878 5.54501 20.0087 5.53322 19.9291 5.53278C19.4867 5.53278 19.1694 5.91581 19.0801 6.03629C19.0707 6.42465 19.1861 6.78408 19.2409 6.93298Z" fill="#002D65"/>
<path d="M7.95757 20C6.49775 20 4.7437 19.3785 3.82469 18.0552C2.08077 15.5442 2.03943 15.4493 0.975069 13.0299C0.672317 12.3394 0.366654 11.6502 0.0580882 10.9623L0 10.8325L0.0481954 10.699C0.0804102 10.6098 3.36962 1.74358 11.6816 0.280972C12.058 0.176971 16.9217 -1.07053 19.7036 2.68542C19.9691 2.93857 21.7825 4.81489 21.0515 8.14469L23.149 9.97865C23.3456 10.0692 23.893 10.3759 24.1827 11.097C24.5543 12.0201 24.3686 13.2346 23.6312 14.7079C23.4443 15.0567 22.8837 15.6198 22.0722 15.3228C21.7425 15.2053 21.401 14.9461 21.0563 14.5516C20.4775 14.9047 19.0775 15.6416 17.5984 15.5297C16.3649 15.4336 15.3756 14.7888 14.656 13.6131C14.5309 13.5431 14.088 13.3579 13.3276 13.7125C12.6675 14.0215 11.9474 14.6551 11.1862 15.597L11.1402 15.6551L11.001 15.8329C11.3074 16.757 11.3279 17.5697 11.0611 18.2503C10.69 19.1961 9.75906 19.8222 8.50776 19.9685C8.33172 19.9896 8.1468 20 7.95757 20ZM0.759204 10.8084C1.11154 11.596 1.38879 12.2263 1.6181 12.7471C2.67611 15.1531 2.69666 15.1995 4.40202 17.6549C5.28196 18.9222 7.09487 19.4285 8.42659 19.2715C9.00569 19.2035 10.0333 18.9473 10.4077 17.9941C10.6286 17.4307 10.5835 16.7199 10.2737 15.8808C10.0926 15.3864 9.81614 14.8461 9.45188 14.2749C5.40372 7.92857 6.93101 4.89353 6.99772 4.7672L8.14933 2.59917L7.65191 5.00362C7.64582 5.03279 7.09031 8.19415 10.9368 14.802C11.662 13.9669 12.3642 13.3883 13.03 13.0769C14.3523 12.4594 15.1105 13.0705 15.1422 13.0966L15.1889 13.1355L15.2196 13.1875C15.819 14.1983 16.6373 14.7508 17.6522 14.8302C19.2881 14.9504 20.9092 13.8115 20.9252 13.8003L21.2009 13.6042L21.4074 13.8721C21.8186 14.4058 22.1255 14.596 22.3109 14.662C22.7391 14.8185 22.9682 14.456 23.01 14.3819C23.6327 13.1372 23.8177 12.0929 23.5384 11.3758C23.3121 10.7959 22.8581 10.6169 22.839 10.6098L22.7802 10.5872L22.7292 10.5446L20.2695 8.39353L20.321 8.18578C21.1182 4.96506 19.2837 3.2526 19.2059 3.18107L19.1579 3.12805C16.5774 -0.391988 12.0524 0.903961 11.8606 0.960781L11.8208 0.970167C4.4388 2.25775 1.19119 9.72981 0.759204 10.8084Z" fill="#002D65"/>
<path d="M20.0318 16.1101C19.4499 16.1101 18.8341 15.9343 18.2712 15.4232C18.2024 15.3604 18.1612 15.273 18.1567 15.18C18.1521 15.087 18.1845 14.996 18.2468 14.9268C18.3096 14.8578 18.3971 14.8166 18.4902 14.8122C18.5832 14.8078 18.6743 14.8405 18.7432 14.9032C20.0121 16.0558 21.7395 14.8864 21.9764 14.7157C22.0453 14.6565 22.1344 14.6263 22.2251 14.6314C22.3157 14.6365 22.4009 14.6766 22.4627 14.7432C22.5244 14.8098 22.558 14.8977 22.5563 14.9885C22.5546 15.0793 22.5177 15.1659 22.4535 15.2301C22.438 15.245 22.4218 15.2592 22.4051 15.2728C22.2382 15.3943 21.2055 16.1101 20.0318 16.1101Z" fill="#002D65"/>
<path d="M21.9584 13.207C21.8772 13.2065 21.7964 13.1944 21.7185 13.1713C21.6512 13.1942 21.5805 13.2057 21.5095 13.2052C21.3806 13.2052 21.1827 13.168 20.9717 12.9868C20.7386 12.7877 20.7784 12.477 20.8078 12.251C20.8109 12.2322 20.8132 12.2096 20.8157 12.1871C20.7883 12.1959 20.7561 12.2073 20.7185 12.2221C20.1268 12.4531 19.6658 12.1769 19.6346 11.6551C19.5989 11.0646 20.089 10.3394 20.7982 10.2544C21.129 10.2148 21.4826 10.1758 21.8519 10.1758C23.4106 10.1758 23.7584 10.9302 23.7759 11.5625C23.7896 12.0349 23.728 12.306 23.5699 12.4686C23.5267 12.5139 23.4748 12.55 23.4173 12.5747C23.3598 12.5994 23.2979 12.6123 23.2354 12.6124C22.9348 12.6124 22.7062 12.3294 22.5789 12.0904C22.5548 12.1262 22.5383 12.1683 22.5477 12.2096C22.5741 12.3263 22.6423 12.7215 22.4269 12.9904C22.3151 13.1302 22.1484 13.207 21.9584 13.207ZM21.5051 11.8636L21.8943 11.8941C21.9289 11.8034 21.9774 11.7187 22.0381 11.643C22.2073 11.4296 22.4523 11.2972 22.6765 11.2972C22.8384 11.2972 22.9781 11.366 23.0674 11.4816C23.0413 11.2452 22.8894 10.8779 21.8516 10.8779C21.5211 10.8779 21.1911 10.9142 20.8819 10.951C20.713 10.9715 20.5463 11.0963 20.4349 11.285C20.3576 11.4177 20.3335 11.5387 20.3342 11.6039C20.3637 11.5998 20.4048 11.5902 20.4621 11.5679C20.9839 11.3629 21.2692 11.4994 21.3864 11.6333C21.4486 11.7036 21.4854 11.7822 21.5051 11.8636Z" fill="#002D65"/>
<path d="M13.1771 13.7634C13.131 13.7634 13.0853 13.7544 13.0426 13.7368C13 13.7191 12.9613 13.6933 12.9286 13.6607C12.896 13.6281 12.8701 13.5894 12.8524 13.5468C12.8347 13.5042 12.8256 13.4585 12.8255 13.4123C12.8255 13.3905 12.8298 13.351 12.8339 13.3294C12.9724 12.6443 13.7466 9.1752 15.4885 7.77957C16.0148 7.35773 16.1865 6.4996 15.9595 5.42484C15.6249 3.84124 14.4388 1.98014 13.0335 1.60802L11.4766 1.19607L13.0637 0.922628C13.1 0.916033 16.7428 0.355951 18.059 5.96336C18.0816 6.0496 18.6742 8.24376 20.6045 7.92415C20.6501 7.91664 20.6966 7.91817 20.7416 7.92866C20.7865 7.93914 20.829 7.95838 20.8665 7.98527C20.904 8.01215 20.9358 8.04617 20.9602 8.08536C20.9846 8.12456 21.001 8.16817 21.0085 8.21371C21.016 8.25924 21.0145 8.30581 21.004 8.35076C20.9935 8.3957 20.9742 8.43814 20.9474 8.47565C20.9205 8.51316 20.8865 8.54501 20.8473 8.56937C20.8081 8.59374 20.7645 8.61015 20.7189 8.61766C18.664 8.95604 17.6344 7.13907 17.3769 6.13078C16.829 3.7971 15.8791 2.65766 15.022 2.10646C15.8352 2.99123 16.4189 4.2022 16.6464 5.28025C16.93 6.62338 16.6677 7.73441 15.927 8.32773C14.3589 9.58436 13.6182 12.9966 13.5256 13.4509C13.5164 13.5368 13.4756 13.6163 13.4113 13.674C13.3469 13.7317 13.2635 13.7635 13.1771 13.7634Z" fill="#002D65"/>
<path d="M17.1605 18.473H10.7335C10.64 18.4732 10.5502 18.4363 10.4838 18.3705C10.4173 18.3047 10.3796 18.2152 10.3789 18.1217C10.3789 17.9277 10.5331 17.7704 10.7272 17.7704H16.6468C16.3701 16.8811 16.3105 15.5864 17.4451 14.937C17.526 14.8908 17.6219 14.8785 17.7117 14.9029C17.8016 14.9273 17.8782 14.9864 17.9245 15.0671C17.9707 15.1481 17.9828 15.244 17.9583 15.3338C17.9338 15.4237 17.8747 15.5002 17.7939 15.5466C16.6423 16.2061 17.4421 17.897 17.4766 17.9685L17.7201 18.4725L17.1605 18.473Z" fill="#002D65"/>
<path d="M13.4747 7.92735C12.9034 7.92735 12.6533 7.65797 12.6089 7.60368L12.5633 7.53266C12.2515 6.88075 12.338 6.15503 12.3423 6.12408L12.3558 6.01958L12.4245 5.93967C12.771 5.53559 13.2733 5.32227 13.8757 5.32227C14.2849 5.32227 14.5964 5.42069 14.6311 5.43185L14.763 5.47522L14.83 5.59723C15.2239 6.31687 14.7876 7.37463 14.7369 7.49283L14.6803 7.62296L14.5494 7.67725C14.1527 7.84314 13.7912 7.92735 13.4747 7.92735ZM13.1685 7.16587C13.2055 7.18413 13.3009 7.22446 13.4744 7.22446C13.6642 7.22446 13.8879 7.17677 14.141 7.08292C14.2303 6.82672 14.344 6.37495 14.2633 6.06295C14.1356 6.03762 14.0059 6.02462 13.8757 6.02414C13.5226 6.02414 13.2398 6.12358 13.032 6.31864C13.0257 6.49037 13.0333 6.8422 13.1685 7.16587Z" fill="#002D65"/>
<path d="M19.6219 7.51456C19.4266 7.51456 19.2186 7.47955 19.0035 7.41056L18.8544 7.36261L18.7904 7.2193C18.7793 7.1952 18.5236 6.61356 18.5578 5.95987L18.5629 5.86805L18.6121 5.78992C18.6322 5.75847 19.1177 5.00586 19.9312 5.00586C20.0945 5.00586 20.2596 5.03681 20.4217 5.09768L20.5567 5.14867L20.6171 5.28007C20.6784 5.41349 21.1921 6.59352 20.5087 7.18835C20.4217 7.2751 20.1359 7.51456 19.6219 7.51456ZM19.3774 6.78478C19.4639 6.80329 19.5456 6.81243 19.6219 6.81243C19.8883 6.81243 20.005 6.69904 20.0095 6.69397L20.043 6.66175C20.2333 6.50296 20.1483 6.03115 20.0372 5.71661C19.6694 5.65523 19.3716 5.95429 19.2577 6.09609C19.2595 6.37258 19.3269 6.63055 19.3774 6.78478Z" fill="#002D65"/>
<path d="M14.0582 7.13154C14.0582 7.13154 13.9073 7.07319 13.8609 6.84084C13.8139 6.60824 13.7962 6.60189 13.7797 6.43397C13.7627 6.26579 13.7668 5.96394 13.9712 5.90255C14.1752 5.84091 14.5559 6.26123 14.5559 6.59631C14.5559 6.71909 14.5229 6.83171 14.4615 6.92151C14.4168 6.987 14.3566 7.04044 14.2862 7.07708C14.2158 7.11372 14.1375 7.13242 14.0582 7.13154Z" fill="#002D65"/>
<path d="M19.9639 6.69258C19.9639 6.69258 19.836 6.64337 19.797 6.44679C19.7574 6.2502 19.7422 6.24487 19.728 6.10257C19.7135 5.96077 19.7171 5.70585 19.8898 5.65359C20.0621 5.60134 20.3839 5.95697 20.3839 6.24056C20.3839 6.3438 20.3566 6.43842 20.3043 6.51477C20.2666 6.57021 20.2159 6.61546 20.1565 6.64649C20.0971 6.67752 20.0309 6.69335 19.9639 6.69258Z" fill="#002D65"/>
</g>
</g>
<defs>
<clipPath id="clip0_487_380">
<rect width="24.3687" height="20" fill="white"/>
</clipPath>
<clipPath id="clip1_487_380">
<rect width="24.3687" height="20" fill="white"/>
</clipPath>
</defs>
</svg>
